<svg width="44" height="44" viewBox="0 0 44 44" fill="none" xmlns="http://www.w3.org/2000/svg">
<circle cx="22" cy="22" r="22" transform="rotate(-90 22 22)" fill="white"/>
<path d="M23.0115 14.6459C23.2504 14.4024 23.5745 14.2656 23.9123 14.2656C24.2502 14.2656 24.5742 14.4024 24.8131 14.6459L30.5468 20.4904C30.7857 20.7339 30.9199 21.0642 30.9199 21.4086C30.9199 21.753 30.7857 22.0833 30.5468 22.3268L24.8131 28.1713C24.5728 28.4079 24.251 28.5388 23.9169 28.5358C23.5828 28.5329 23.2632 28.3963 23.027 28.1555C22.7908 27.9147 22.6568 27.5889 22.6539 27.2484C22.651 26.9079 22.7794 26.5798 23.0115 26.3348L26.4606 22.7074L14.3562 22.7074C14.0183 22.7074 13.6942 22.5705 13.4552 22.327C13.2163 22.0834 13.082 21.7531 13.082 21.4086C13.082 21.0641 13.2163 20.7338 13.4552 20.4902C13.6942 20.2467 14.0183 20.1098 14.3562 20.1098L26.4606 20.1098L23.0115 16.4824C22.7726 16.2388 22.6384 15.9085 22.6384 15.5641C22.6384 15.2197 22.7726 14.8894 23.0115 14.6459Z" fill="#04254F"/>
</svg>
