<svg width="127" height="126" viewBox="0 0 127 126" fill="none" xmlns="http://www.w3.org/2000/svg">
<g filter="url(#filter0_d_10965_66250)">
<rect x="5" y="3" width="117" height="116" rx="20.9449" fill="url(#paint0_linear_10965_66250)" shape-rendering="crispEdges"/>
<path fill-rule="evenodd" clip-rule="evenodd" d="M48.4677 33.8444H67.7028C69.4749 33.8444 70.9164 32.5865 70.9164 31.039V29.1091C70.9164 27.5634 69.4749 26.3055 67.7028 26.3055H63.964C63.3769 26.3055 62.9029 25.8335 62.9029 25.2528C62.9029 22.9071 60.7417 21 58.0852 21C55.4306 21 53.2694 22.9071 53.2694 25.2528C53.2694 25.8335 52.7936 26.3055 52.2082 26.3055H48.4677C46.6955 26.3055 45.2541 27.5634 45.2541 29.1091V31.039C45.2541 32.5865 46.6955 33.8444 48.4677 33.8444ZM83.4556 88.5626C83.4822 89.0311 83.919 89.0802 84.1065 89.0802C84.2939 89.0802 84.7308 89.0311 84.7573 88.5626L85.3321 78.1393C85.3533 77.7709 85.1553 77.506 85.0368 77.3797C84.7945 77.127 84.4549 76.9814 84.1082 76.9814C83.7598 76.9814 83.4203 77.127 83.1797 77.3797C83.0595 77.506 82.8614 77.7709 82.8826 78.1393L83.4556 88.5626ZM84.1065 95.4068C83.5618 95.4068 83.1178 95.8471 83.1178 96.3875C83.1178 96.9296 83.5618 97.37 84.1065 97.37C84.653 97.37 85.0951 96.9296 85.0951 96.3875C85.0933 95.8471 84.653 95.4068 84.1065 95.4068ZM82.6987 67.2073C83.0011 66.688 83.5016 66.402 84.1065 66.402C84.7113 66.402 85.2118 66.688 85.5143 67.2073L103.773 98.5806C104.076 99.0999 104.076 99.6736 103.773 100.193C103.471 100.714 102.97 101 102.365 101H65.8476C65.2427 101 64.7422 100.714 64.4398 100.193C64.1373 99.6736 64.1373 99.0999 64.4398 98.5806L82.6987 67.2073ZM80.9938 96.3875C80.9938 94.6857 82.3892 93.3014 84.1047 93.3014C85.8202 93.3014 87.2157 94.6857 87.2157 96.3875C87.2157 98.0911 85.8202 99.4754 84.1047 99.4754C82.3909 99.4754 80.9938 98.0911 80.9938 96.3875ZM81.3369 88.6784L80.7621 78.2551C80.7143 77.3972 81.0238 76.5726 81.6358 75.9322C82.276 75.262 83.178 74.876 84.1065 74.876C85.035 74.876 85.937 75.262 86.5772 75.9322C87.1891 76.5744 87.4986 77.3972 87.4509 78.2551L86.8761 88.6784C86.7947 90.1311 85.631 91.1855 84.1065 91.1855C82.5802 91.1855 81.4182 90.1311 81.3369 88.6784ZM43.2769 87.4819H29.8144C26.0561 87.4819 23 90.5136 23 94.2401V101H50.0895V94.2401C50.0895 90.5136 47.0333 87.4819 43.2769 87.4819ZM45.1356 76.6007C45.1356 71.9005 41.2801 68.0775 36.5438 68.0775C31.8058 68.0775 27.952 71.9005 27.952 76.6007C27.952 81.3009 31.8058 85.1239 36.5438 85.1239C41.2801 85.1239 45.1356 81.3009 45.1356 76.6007ZM67.7028 35.9498C70.6139 35.9498 72.9856 33.7935 73.0369 31.1268H78.0331C80.7975 31.1268 83.0453 33.3567 83.0453 36.0989V64.4405C82.131 64.6984 81.3634 65.2914 80.8611 66.1546L62.6022 97.5279C62.5456 97.6227 62.4961 97.7209 62.4501 97.8192H52.2118V94.2401C52.2118 89.3521 48.2041 85.3765 43.2769 85.3765H42.5818C45.4027 83.4606 47.2597 80.2412 47.2597 76.6007C47.2597 70.7408 42.4527 65.9721 36.5456 65.9721C35.35 65.9721 34.2005 66.1704 33.1252 66.5301V36.0989C33.1252 33.3567 35.3748 31.1268 38.1373 31.1268H43.1336C43.1867 33.7935 45.5583 35.9498 48.4677 35.9498H67.7028ZM51.5485 46.5748C50.9614 46.5748 50.4874 47.0468 50.4874 47.6275C50.4874 48.2082 50.9614 48.6802 51.5485 48.6802H73.5339C74.121 48.6802 74.595 48.2082 74.595 47.6275C74.595 47.0468 74.121 46.5748 73.5339 46.5748H51.5485ZM51.5485 58.5227C50.9614 58.5227 50.4874 58.9946 50.4874 59.5754C50.4874 60.1579 50.9614 60.6281 51.5485 60.6281H73.5339C74.121 60.6281 74.595 60.1579 74.595 59.5754C74.595 58.9946 74.121 58.5227 73.5339 58.5227H51.5485ZM48.121 54.7822L41.625 61.2263L38.2435 57.8718C37.8296 57.4612 37.1575 57.4612 36.7419 57.8718C36.3281 58.2823 36.3281 58.949 36.7419 59.3596L40.8751 63.4598C41.082 63.665 41.3526 63.7668 41.625 63.7668C41.8974 63.7668 42.168 63.665 42.3749 63.4598L49.6226 56.27C50.0364 55.8594 50.0364 55.1927 49.6226 54.7822C49.2069 54.3716 48.5349 54.3716 48.121 54.7822ZM49.6226 42.8343C49.2069 42.422 48.5349 42.422 48.121 42.8343L41.625 49.2784L38.2435 45.9221C37.8296 45.5116 37.1575 45.5116 36.7419 45.9221C36.3281 46.3344 36.3281 47.0011 36.7419 47.4117L40.8751 51.5101C41.082 51.7154 41.3526 51.8189 41.625 51.8189C41.8956 51.8189 42.168 51.7154 42.3749 51.5101L49.6226 44.3221C50.0346 43.9115 50.0346 43.2448 49.6226 42.8343Z" fill="url(#paint1_linear_10965_66250)"/>
</g>
<defs>
<filter id="filter0_d_10965_66250" x="0.811011" y="0.905506" width="125.378" height="124.378" filterUnits="userSpaceOnUse" color-interpolation-filters="sRGB">
<feFlood flood-opacity="0" result="BackgroundImageFix"/>
<feColorMatrix in="SourceAlpha" type="matrix" values="0 0 0 0 0 0 0 0 0 0 0 0 0 0 0 0 0 0 127 0" result="hardAlpha"/>
<feOffset dy="2.09449"/>
<feGaussianBlur stdDeviation="2.09449"/>
<feComposite in2="hardAlpha" operator="out"/>
<feColorMatrix type="matrix" values="0 0 0 0 0 0 0 0 0 0 0 0 0 0 0 0 0 0 0.12 0"/>
<feBlend mode="normal" in2="BackgroundImageFix" result="effect1_dropShadow_10965_66250"/>
<feBlend mode="normal" in="SourceGraphic" in2="effect1_dropShadow_10965_66250" result="shape"/>
</filter>
<linearGradient id="paint0_linear_10965_66250" x1="63.5" y1="-36.15" x2="121.06" y2="200.216" gradientUnits="userSpaceOnUse">
<stop stop-color="#EBFFFD"/>
<stop offset="1" stop-color="#27D7C3"/>
</linearGradient>
<linearGradient id="paint1_linear_10965_66250" x1="57.6095" y1="6.82549" x2="63.4066" y2="101.006" gradientUnits="userSpaceOnUse">
<stop stop-color="#00FFEA"/>
<stop offset="1" stop-color="#007D6F"/>
</linearGradient>
</defs>
</svg>
