<svg width="120" height="119" viewBox="0 0 120 119" fill="none" xmlns="http://www.w3.org/2000/svg">
<g filter="url(#filter0_d_7905_71550)">
<path d="M4.5 22C4.5 10.9543 13.4543 2 24.5 2H95.5C106.546 2 115.5 10.9543 115.5 22V93C115.5 104.046 106.546 113 95.5 113H24.5C13.4543 113 4.5 104.046 4.5 93V22Z" fill="url(#paint0_linear_7905_71550)" shape-rendering="crispEdges"/>
<path fill-rule="evenodd" clip-rule="evenodd" d="M83.6948 46.181V33.4448L69.1261 18.8388V32.1064H75.7124C76.44 32.1064 77.03 32.6969 77.03 33.4448C77.03 34.173 76.44 34.7637 75.7124 34.7637H67.7895C67.062 34.7637 66.4526 34.1732 66.4526 33.4448V17.5H25.5V97.5H83.6948V93.2868L52.5133 71.7716L57.2909 64.8426C59.9251 61.0234 65.1746 60.0393 68.9886 62.6771L71.2497 64.232C72.862 62.4997 74.533 60.5312 75.5947 58.6415C76.2241 57.5 76.4005 56.7716 76.5972 55.5116C76.9515 53.2873 77.5804 51.7913 78.8782 49.9211C80.0967 48.1297 81.8074 46.8702 83.6948 46.181ZM85.4838 77.3032L67.4944 64.882C64.8796 63.0705 61.2819 63.7402 59.473 66.3583L56.2095 71.1024L83.6949 90.0588L86.9587 85.3148C88.7671 82.6964 88.0987 79.0941 85.4838 77.3032ZM81.3947 81.1219C82.0041 81.5353 82.1415 82.3619 81.7286 82.9722C81.316 83.5826 80.49 83.7203 79.8807 83.307L63.8769 72.2638C63.2671 71.8505 63.1101 71.0237 63.5227 70.4134C63.9556 69.8031 64.7816 69.6654 65.371 70.0786L81.3947 81.1219ZM82.5349 72.0074C88.1773 60.8857 89.4751 65.2165 93.1908 59.8032C95.5108 56.437 94.6656 51.85 91.3033 49.5472C87.9613 47.2439 83.3802 48.0904 81.0603 51.4368C77.3445 56.8502 81.8272 56.5156 73.4713 65.7674L82.5349 72.0074ZM41.9952 68.5825C45.3964 68.5825 48.4437 69.9605 50.6651 72.185C52.8869 74.3898 54.263 77.4604 54.263 80.846C54.263 84.2519 52.8869 87.303 50.6651 89.5275C48.4437 91.7517 45.3964 93.1299 41.9952 93.1299C38.6134 93.1299 35.5465 91.7517 33.3445 89.5275C31.1226 87.303 29.7463 84.2521 29.7463 80.846C29.7463 77.4604 31.1226 74.3898 33.3445 72.185C35.5463 69.9606 38.6133 68.5825 41.9952 68.5825ZM48.7779 74.055C47.0476 72.3225 44.6493 71.2398 41.9952 71.2398C39.3604 71.2398 36.9621 72.3225 35.2121 74.055C33.4821 75.8071 32.4202 78.2085 32.4202 80.846C32.4202 83.5035 33.4821 85.9053 35.2121 87.6375C36.9621 89.3893 39.3604 90.4522 41.9952 90.4522C44.6493 90.4522 47.0476 89.3893 48.7779 87.6375C50.5278 85.9053 51.5893 83.5035 51.5893 80.846C51.5893 78.2085 50.5278 75.8071 48.7779 74.055ZM35.802 83.5629C35.2318 83.1098 35.1334 82.2637 35.5857 81.6929C36.0374 81.1022 36.8636 81.004 37.4532 81.4565L40.9134 84.1531L46.2218 74.9014C46.5956 74.2517 47.4015 74.0353 48.0308 74.4095C48.6796 74.7637 48.8956 75.5904 48.5417 76.2205L42.4865 86.7711C42.4475 86.8503 42.408 86.9094 42.3687 86.9683C41.9161 87.5388 41.0711 87.6575 40.5003 87.2045L35.802 83.5629ZM39.7338 34.8031C38.9868 34.8031 38.3972 34.2124 38.3972 33.4642C38.3972 32.736 38.9868 32.1458 39.7338 32.1458H59.7678C60.5152 32.1458 61.105 32.7361 61.105 33.4642C61.105 34.2123 60.5152 34.8031 59.7678 34.8031H39.7338ZM35.0354 46.8309C34.3077 46.8309 33.718 46.2204 33.718 45.492C33.718 44.7636 34.3077 44.1533 35.0354 44.1533H74.1594C74.9062 44.1533 75.4965 44.7638 75.4965 45.492C75.4965 46.2202 74.9062 46.8309 74.1594 46.8309H35.0354ZM35.0354 58.8383C34.3077 58.8383 33.718 58.2479 33.718 57.5002C33.718 56.7718 34.3077 56.1811 35.0354 56.1811H57.9594C58.6867 56.1811 59.2766 56.7718 59.2766 57.5002C59.2766 58.2479 58.6867 58.8383 57.9594 58.8383H35.0354Z" fill="url(#paint1_linear_7905_71550)"/>
</g>
<defs>
<filter id="filter0_d_7905_71550" x="0.5" y="0" width="119" height="119" filterUnits="userSpaceOnUse" color-interpolation-filters="sRGB">
<feFlood flood-opacity="0" result="BackgroundImageFix"/>
<feColorMatrix in="SourceAlpha" type="matrix" values="0 0 0 0 0 0 0 0 0 0 0 0 0 0 0 0 0 0 127 0" result="hardAlpha"/>
<feOffset dy="2"/>
<feGaussianBlur stdDeviation="2"/>
<feComposite in2="hardAlpha" operator="out"/>
<feColorMatrix type="matrix" values="0 0 0 0 0 0 0 0 0 0 0 0 0 0 0 0 0 0 0.12 0"/>
<feBlend mode="normal" in2="BackgroundImageFix" result="effect1_dropShadow_7905_71550"/>
<feBlend mode="normal" in="SourceGraphic" in2="effect1_dropShadow_7905_71550" result="shape"/>
</filter>
<linearGradient id="paint0_linear_7905_71550" x1="30.8625" y1="23.275" x2="77.1125" y2="139.825" gradientUnits="userSpaceOnUse">
<stop stop-color="#FFF2D3"/>
<stop offset="1" stop-color="#FDF171"/>
</linearGradient>
<linearGradient id="paint1_linear_7905_71550" x1="53.1325" y1="7.72915" x2="65.1242" y2="103.192" gradientUnits="userSpaceOnUse">
<stop stop-color="#E9AC06"/>
<stop offset="1" stop-color="#FFDD57"/>
</linearGradient>
</defs>
</svg>
