<svg width="120" height="119" viewBox="0 0 120 119" fill="none" xmlns="http://www.w3.org/2000/svg">
<g filter="url(#filter0_d_7905_71557)">
<rect x="4.5" y="2" width="111" height="111" rx="20" fill="url(#paint0_linear_7905_71557)" shape-rendering="crispEdges"/>
<path d="M31.575 86.4034H61.4929C61.8543 83.926 64.0048 82.0164 66.5854 82.0164H69.837C69.2864 81.4831 68.7532 80.9325 68.2886 80.3304H31.575C30.8695 80.3304 30.2846 79.7454 30.2846 79.0401C30.2846 78.3174 30.8695 77.7498 31.575 77.7498H66.4995C65.4499 75.8917 64.693 73.8444 64.3318 71.6594H31.575C30.8695 71.6594 30.2846 71.0746 30.2846 70.3691C30.2846 69.6638 30.8695 69.0788 31.575 69.0788H64.0735V68.5972C64.0735 61.3198 68.2714 55.0058 74.3788 51.9608V33.1222C74.3788 30.2662 72.0564 27.9609 69.2175 27.9609H64.865V31.0232C64.865 33.3974 62.9209 35.3415 60.5467 35.3415H33.8286C31.4544 35.3415 29.5276 33.3974 29.5276 31.0232V27.9609H25.1578C22.3191 27.9609 19.9966 30.2662 19.9966 33.1222V92.3389C19.9966 95.1776 22.3191 97.5001 25.1578 97.5001H62.1124C61.6823 96.7431 61.4242 95.8485 61.4242 94.9195V88.984H31.575C30.8695 88.984 30.2846 88.3992 30.2846 87.6937C30.2846 86.9884 30.8695 86.4034 31.575 86.4034ZM39.2393 48.0037H44.0997V43.1436C44.0997 42.4072 44.6966 41.8103 45.433 41.8103H48.9426C49.6789 41.8103 50.2759 42.4072 50.2759 43.1436V48.0037H55.136C55.8724 48.0037 56.4694 48.6007 56.4694 49.337V52.8467C56.4694 53.5831 55.8724 54.1801 55.136 54.1801H50.2759V59.0231C50.2759 59.7594 49.6789 60.3564 48.9426 60.3564H45.433C44.6966 60.3564 44.0997 59.7594 44.0997 59.0231V54.1801H39.2393C38.5029 54.1801 37.906 53.5831 37.906 52.8467V49.337C37.906 48.6007 38.5029 48.0037 39.2393 48.0037Z" fill="url(#paint1_linear_7905_71557)"/>
<path d="M33.8286 32.7601H60.5467C61.51 32.7601 62.2844 31.9688 62.2844 31.0224V24.829C62.2844 23.8828 61.51 23.0914 60.5467 23.0914H52.8048C52.8048 20.0118 50.2759 17.5 47.1963 17.5C44.0996 17.5 41.5877 20.0118 41.5877 23.0914H33.8286C32.8652 23.0914 32.1082 23.8828 32.1082 24.829V31.0224C32.1082 31.9688 32.8652 32.7601 33.8286 32.7601ZM46.2846 21.4054C46.7662 20.9236 47.6264 20.9236 48.1081 21.4054C48.5343 21.7709 48.6842 22.6118 48.1081 23.229C47.6619 23.6757 46.8175 23.7624 46.2846 23.229C45.7483 22.6932 45.8124 21.8434 46.2846 21.4054Z" fill="url(#paint2_linear_7905_71557)"/>
<path d="M98.6522 68.5917C98.6522 59.7687 91.4733 52.5898 82.6503 52.5898C73.8273 52.5898 66.6484 59.7687 66.6484 68.5917C66.6484 77.4147 73.8273 84.5935 82.6503 84.5935C91.4733 84.5935 98.6522 77.4147 98.6522 68.5917ZM82.6453 67.2995C85.6636 67.2995 88.1115 69.5105 88.1115 72.2272C88.1115 74.5485 86.3247 76.4876 83.9347 77.0118V77.7413C83.9347 78.4536 83.3568 79.0316 82.6444 79.0316C81.9321 79.0316 81.3541 78.4536 81.3541 77.7413V77.0063C78.9696 76.4755 77.1891 74.5421 77.1891 72.2272C77.1891 71.5148 77.7671 70.9369 78.4795 70.9369C79.1918 70.9369 79.7698 71.5148 79.7698 72.2272C79.7698 73.5259 81.0643 74.5827 82.6553 74.5827C84.2405 74.5827 85.5308 73.5259 85.5308 72.2272C85.5308 70.9335 84.2405 69.8801 82.6553 69.8801C79.637 69.8801 77.1891 67.6708 77.1891 64.9541C77.1891 62.6367 78.9701 60.7009 81.3541 60.1727V59.4434C81.3541 58.731 81.9321 58.1531 82.6444 58.1531C83.3568 58.1531 83.9347 58.731 83.9347 59.4434V60.1716C86.3255 60.6983 88.1115 62.6353 88.1115 64.9541C88.1115 65.6664 87.5335 66.2444 86.8211 66.2444C86.1088 66.2444 85.5308 65.6664 85.5308 64.9541C85.5308 63.6568 84.2392 62.6013 82.6507 62.599C82.6484 62.599 82.6465 62.6003 82.6444 62.6003C82.6423 62.6003 82.6406 62.5991 82.6387 62.5991C81.0567 62.602 79.7698 63.6571 79.7698 64.9541C79.7698 66.2477 81.0601 67.2995 82.6453 67.2995Z" fill="url(#paint3_linear_7905_71557)"/>
<path d="M74.1133 84.5918H80.7149V97.495H74.1133V84.5918Z" fill="url(#paint4_linear_7905_71557)"/>
<path d="M83.2949 84.5918H89.8949V97.495H83.2949V84.5918Z" fill="url(#paint5_linear_7905_71557)"/>
<path d="M97.4229 84.5918H92.4763V97.4949H97.4229C98.8481 97.4949 100.004 96.3395 100.004 94.9143V87.1724C100.004 85.7472 98.8481 84.5918 97.4229 84.5918Z" fill="url(#paint6_linear_7905_71557)"/>
<path d="M64.0066 87.1724V94.9143C64.0066 96.3395 65.1621 97.4949 66.5872 97.4949H71.533V84.5918H66.5872C65.1621 84.5918 64.0066 85.7472 64.0066 87.1724Z" fill="url(#paint7_linear_7905_71557)"/>
</g>
<defs>
<filter id="filter0_d_7905_71557" x="0.5" y="0" width="119" height="119" filterUnits="userSpaceOnUse" color-interpolation-filters="sRGB">
<feFlood flood-opacity="0" result="BackgroundImageFix"/>
<feColorMatrix in="SourceAlpha" type="matrix" values="0 0 0 0 0 0 0 0 0 0 0 0 0 0 0 0 0 0 127 0" result="hardAlpha"/>
<feOffset dy="2"/>
<feGaussianBlur stdDeviation="2"/>
<feComposite in2="hardAlpha" operator="out"/>
<feColorMatrix type="matrix" values="0 0 0 0 0 0 0 0 0 0 0 0 0 0 0 0 0 0 0.12 0"/>
<feBlend mode="normal" in2="BackgroundImageFix" result="effect1_dropShadow_7905_71557"/>
<feBlend mode="normal" in="SourceGraphic" in2="effect1_dropShadow_7905_71557" result="shape"/>
</filter>
<linearGradient id="paint0_linear_7905_71557" x1="60" y1="-35.4625" x2="115.5" y2="208.737" gradientUnits="userSpaceOnUse">
<stop stop-color="#FBF3FF"/>
<stop offset="1" stop-color="#A2A1FF"/>
</linearGradient>
<linearGradient id="paint1_linear_7905_71557" x1="47.1877" y1="27.9609" x2="47.1877" y2="97.5001" gradientUnits="userSpaceOnUse">
<stop stop-color="#DB9CFF"/>
<stop offset="1" stop-color="#5350FF"/>
</linearGradient>
<linearGradient id="paint2_linear_7905_71557" x1="47.1963" y1="17.5" x2="47.1963" y2="32.7601" gradientUnits="userSpaceOnUse">
<stop stop-color="#5350FF"/>
<stop offset="1" stop-color="#DB9CFF"/>
</linearGradient>
<linearGradient id="paint3_linear_7905_71557" x1="82.6503" y1="52.5898" x2="82.6503" y2="84.5935" gradientUnits="userSpaceOnUse">
<stop stop-color="#DB9CFF"/>
<stop offset="1" stop-color="#5350FF"/>
</linearGradient>
<linearGradient id="paint4_linear_7905_71557" x1="77.4141" y1="84.5918" x2="77.4141" y2="97.495" gradientUnits="userSpaceOnUse">
<stop stop-color="#DB9CFF"/>
<stop offset="1" stop-color="#5350FF"/>
</linearGradient>
<linearGradient id="paint5_linear_7905_71557" x1="86.5949" y1="84.5918" x2="86.5949" y2="97.495" gradientUnits="userSpaceOnUse">
<stop stop-color="#DB9CFF"/>
<stop offset="1" stop-color="#5350FF"/>
</linearGradient>
<linearGradient id="paint6_linear_7905_71557" x1="96.2399" y1="84.5918" x2="96.2399" y2="97.4949" gradientUnits="userSpaceOnUse">
<stop stop-color="#DB9CFF"/>
<stop offset="1" stop-color="#5350FF"/>
</linearGradient>
<linearGradient id="paint7_linear_7905_71557" x1="67.7698" y1="84.5918" x2="67.7698" y2="97.4949" gradientUnits="userSpaceOnUse">
<stop stop-color="#DB9CFF"/>
<stop offset="1" stop-color="#5350FF"/>
</linearGradient>
</defs>
</svg>
