<svg width="127" height="126" viewBox="0 0 127 126" fill="none" xmlns="http://www.w3.org/2000/svg">
<g filter="url(#filter0_d_10965_66232)">
<rect x="5" y="3" width="117" height="116" rx="20.9449" fill="url(#paint0_linear_10965_66232)" shape-rendering="crispEdges"/>
<g clip-path="url(#clip0_10965_66232)">
<path d="M91.7396 32.7629C84.1552 25.1785 74.1271 21.002 63.5005 21.002C52.8739 21.002 42.8458 25.1785 35.2614 32.7629C27.6771 40.3473 23.5005 50.3754 23.5005 61.002C23.5005 71.6285 27.6771 81.6566 35.2614 89.241C42.8458 96.8254 52.8739 101.002 63.5005 101.002C74.1271 101.002 84.1552 96.8254 91.7396 89.241C99.3239 81.6566 103.5 71.6285 103.5 61.002C103.5 50.3754 99.3239 40.3473 91.7396 32.7629ZM65.8442 96.2348V91.5363C65.0677 91.5973 64.2864 91.627 63.5005 91.627C62.7146 91.627 61.9333 91.5973 61.1567 91.5363V96.2348C43.5489 95.0754 29.4271 80.9535 28.2677 63.3457H32.9661C32.9052 62.5691 32.8755 61.7879 32.8755 61.002C32.8755 60.216 32.9052 59.4348 32.9661 58.6582H28.2677C29.4271 41.0504 43.5489 26.9285 61.1567 25.7691V30.4676C61.9333 30.4066 62.7146 30.377 63.5005 30.377C64.2864 30.377 65.0677 30.4066 65.8442 30.4676V25.7691C83.452 26.9285 97.5739 41.0504 98.7333 58.6582H94.0349C94.0958 59.4348 94.1255 60.216 94.1255 61.002C94.1255 61.7879 94.0958 62.5691 94.0349 63.3457H98.7333C97.5739 80.9535 83.452 95.0754 65.8442 96.2348Z" fill="url(#paint1_linear_10965_66232)"/>
<path d="M94.0382 63.3547H87.0976C85.8039 63.3547 84.7539 62.3047 84.7539 61.0109C84.7539 59.7172 85.8039 58.6672 87.0976 58.6672H94.0382C93.4851 51.4172 90.3664 44.6453 85.1179 39.3969C79.8695 34.1484 73.0976 31.0297 65.8476 30.4766V37.5734C65.8476 38.8672 64.7976 39.9172 63.5039 39.9172C62.2101 39.9172 61.1601 38.8672 61.1601 37.5734V30.4766C53.9101 31.0297 47.1382 34.1484 41.8898 39.3969C36.6414 44.6453 33.5226 51.4172 32.9695 58.6672H40.0664C41.3601 58.6672 42.4101 59.7172 42.4101 61.0109C42.4101 62.3047 41.3601 63.3547 40.0664 63.3547H32.9695C33.5226 70.6047 36.6414 77.3766 41.8898 82.625C47.1382 87.8734 53.9101 90.9922 61.1601 91.5453V84.6047C61.1601 83.3109 62.2101 82.2609 63.5039 82.2609C64.7976 82.2609 65.8476 83.3109 65.8476 84.6047V91.5453C73.0976 90.9922 79.8695 87.8734 85.1179 82.625C90.3664 77.3766 93.4851 70.6047 94.0382 63.3547ZM63.5039 77.4172C54.457 77.4172 47.0976 70.0578 47.0976 61.0109C47.0976 51.9641 54.457 44.6047 63.5039 44.6047C72.5507 44.6047 79.9101 51.9641 79.9101 61.0109C79.9101 70.0578 72.5507 77.4172 63.5039 77.4172Z" fill="url(#paint2_linear_10965_66232)"/>
<path d="M63.5005 49.2832C57.0388 49.2832 51.7817 54.5402 51.7817 61.002C51.7817 67.4637 57.0388 72.7207 63.5005 72.7207C69.9622 72.7207 75.2192 67.4637 75.2192 61.002C75.2192 54.5402 69.9622 49.2832 63.5005 49.2832ZM69.8452 59.1437L62.8139 66.1749C62.3563 66.6326 61.7564 66.8615 61.1567 66.8615C60.5571 66.8615 59.9571 66.6327 59.4996 66.1749L55.9839 62.6593C55.0686 61.744 55.0686 60.2601 55.9839 59.3448C56.8991 58.4295 58.3831 58.4295 59.2985 59.3448L61.1567 61.203L66.5308 55.8291C67.446 54.9138 68.93 54.9138 69.8453 55.8291C70.7606 56.7443 70.7606 58.2284 69.8452 59.1437Z" fill="url(#paint3_linear_10965_66232)"/>
</g>
</g>
<defs>
<filter id="filter0_d_10965_66232" x="0.811011" y="0.905506" width="125.378" height="124.378" filterUnits="userSpaceOnUse" color-interpolation-filters="sRGB">
<feFlood flood-opacity="0" result="BackgroundImageFix"/>
<feColorMatrix in="SourceAlpha" type="matrix" values="0 0 0 0 0 0 0 0 0 0 0 0 0 0 0 0 0 0 127 0" result="hardAlpha"/>
<feOffset dy="2.09449"/>
<feGaussianBlur stdDeviation="2.09449"/>
<feComposite in2="hardAlpha" operator="out"/>
<feColorMatrix type="matrix" values="0 0 0 0 0 0 0 0 0 0 0 0 0 0 0 0 0 0 0.12 0"/>
<feBlend mode="normal" in2="BackgroundImageFix" result="effect1_dropShadow_10965_66232"/>
<feBlend mode="normal" in="SourceGraphic" in2="effect1_dropShadow_10965_66232" result="shape"/>
</filter>
<linearGradient id="paint0_linear_10965_66232" x1="50.967" y1="-22.7317" x2="57.9178" y2="121.798" gradientUnits="userSpaceOnUse">
<stop stop-color="#F3FAFF"/>
<stop offset="1" stop-color="#AADAFA"/>
</linearGradient>
<linearGradient id="paint1_linear_10965_66232" x1="37.3443" y1="21.4011" x2="71.2141" y2="100.557" gradientUnits="userSpaceOnUse">
<stop stop-color="#96E3FF"/>
<stop offset="1" stop-color="#2D6CED"/>
</linearGradient>
<linearGradient id="paint2_linear_10965_66232" x1="43.5373" y1="30.7812" x2="69.3921" y2="91.2057" gradientUnits="userSpaceOnUse">
<stop stop-color="#96E3FF"/>
<stop offset="1" stop-color="#2D6CED"/>
</linearGradient>
<linearGradient id="paint3_linear_10965_66232" x1="55.8376" y1="49.4001" x2="65.7603" y2="72.5904" gradientUnits="userSpaceOnUse">
<stop stop-color="#96E3FF"/>
<stop offset="1" stop-color="#2D6CED"/>
</linearGradient>
<clipPath id="clip0_10965_66232">
<rect width="80" height="80" fill="white" transform="translate(23.5 21)"/>
</clipPath>
</defs>
</svg>
