<svg width="120" height="119" viewBox="0 0 120 119" fill="none" xmlns="http://www.w3.org/2000/svg">
<g filter="url(#filter0_d_7905_71536)">
<rect x="4.5" y="2" width="111" height="111" rx="20" fill="url(#paint0_linear_7905_71536)" shape-rendering="crispEdges"/>
<path d="M45.4535 35.2884C45.4651 35.4281 45.4758 35.5661 45.4909 35.704C46.4183 46.2024 52.5602 54.3139 60.0015 54.3139C67.4428 54.3139 73.5838 46.2024 74.512 35.704C74.5263 35.5661 74.537 35.4272 74.5485 35.2884C74.6144 34.8327 74.658 34.3726 74.6847 33.9035C74.7016 33.5849 74.7159 33.2636 74.7159 32.9379C74.7159 32.1413 74.6598 31.3546 74.5485 30.5892C73.4698 23.1497 67.3671 17.4492 60.0006 17.4492C52.6332 17.4492 46.5287 23.1497 45.4535 30.5901C45.3432 31.3555 45.2871 32.1422 45.2871 32.9388C45.2871 33.2645 45.2996 33.5858 45.3165 33.9044C45.3432 34.3726 45.3877 34.8327 45.4535 35.2884Z" fill="url(#paint1_linear_7905_71536)"/>
<path d="M72.7391 52.403C72.7062 52.3985 72.6706 52.3976 72.6385 52.3905C72.3662 52.3549 72.0947 52.3237 71.8188 52.2988C71.818 52.3255 71.8091 52.354 71.8091 52.3807C71.8046 52.4626 71.7904 52.54 71.7815 52.6219C71.7316 53.0776 71.5955 53.5199 71.3819 53.9471C70.361 56.521 67.7044 60.7378 65.2773 64.3521C65.4607 64.3468 65.6422 64.3423 65.8131 64.3423C70.3147 64.3423 70.5426 67.953 70.5426 68.6757V69.4491L70.159 70.1237L68.9352 72.2686C71.8651 74.928 74.0697 78.6321 75.3931 82.355C83.5348 82.0934 89.4969 80.5741 89.4969 71.6839C89.496 61.8521 82.2087 53.721 72.7391 52.403Z" fill="url(#paint2_linear_7905_71536)"/>
<path d="M63.9563 58.3312C64.2713 57.7687 64.4645 57.1528 64.4645 56.5254C64.4645 56.5254 62.4335 57.4261 60.358 57.4261C60.2396 57.4261 60.1213 57.4252 60.0029 57.4172C59.8845 57.4243 59.7662 57.4261 59.6478 57.4261C57.5723 57.4261 55.5396 56.5254 55.5396 56.5254C55.5396 57.1528 55.7327 57.7687 56.0477 58.3312C56.4874 59.1153 57.1727 59.7908 57.9675 60.1993L57.6773 64.3672H62.3303L62.0401 60.1993C62.8349 59.7917 63.5193 59.1144 63.9563 58.3312Z" fill="url(#paint3_linear_7905_71536)"/>
<path d="M51.0674 72.2695L49.8446 70.1246L49.4601 69.4491V68.6766C49.4601 66.5166 50.6394 65.461 51.3425 65.0249C52.3126 64.4188 53.3743 64.3423 54.1878 64.3423C54.3587 64.3423 54.5411 64.3468 54.7253 64.3521C52.2965 60.7369 49.6417 56.5201 48.6191 53.9471C48.4063 53.5199 48.2711 53.0767 48.2203 52.6219C48.2105 52.5409 48.1963 52.4626 48.1919 52.3807C48.1919 52.354 48.1838 52.3255 48.1821 52.2988C47.9079 52.3237 47.6347 52.3549 47.3642 52.3905C47.3303 52.3976 47.2938 52.3985 47.2627 52.403C37.7931 53.721 30.5049 61.8512 30.5049 71.6839C30.5049 80.5741 36.4679 82.0934 44.6087 82.355C45.9348 78.633 48.1393 74.9289 51.0674 72.2695Z" fill="url(#paint4_linear_7905_71536)"/>
<path d="M65.5706 72.2487L67.6052 68.6789C67.6052 68.541 67.5927 68.4208 67.5758 68.3078C67.5713 68.2793 67.5651 68.2499 67.5589 68.2224C67.5384 68.1262 67.5126 68.0381 67.4806 67.9625C67.4761 67.9527 67.4734 67.9411 67.469 67.9313C67.4307 67.8486 67.3835 67.7765 67.3293 67.7133C67.3168 67.6955 67.3043 67.6821 67.2892 67.6661C67.242 67.6154 67.1877 67.5709 67.129 67.5335C67.1165 67.5237 67.1067 67.5148 67.0925 67.5077C67.0231 67.465 66.9439 67.4303 66.8611 67.4027C66.8424 67.3947 66.8211 67.3875 66.8006 67.3831C66.7303 67.3617 66.6555 67.3448 66.5772 67.3288C66.5558 67.3261 66.5372 67.3217 66.5149 67.3172C66.4206 67.303 66.32 67.2923 66.2132 67.2879C66.1874 67.2861 66.1616 67.2852 66.1375 67.2834C66.0477 67.2781 65.9533 67.2763 65.859 67.2763C65.8421 67.2763 65.8305 67.2754 65.8127 67.2754C65.8029 67.2754 65.7904 67.2754 65.7771 67.2754C65.5937 67.2763 65.4024 67.2807 65.2013 67.2879C64.9841 67.2923 64.7598 67.2985 64.5284 67.2985H55.4762C55.2431 67.2985 55.0179 67.2923 54.8025 67.2879C54.6005 67.2807 54.4082 67.2763 54.2249 67.2754C54.2133 67.2754 54.2026 67.2754 54.1893 67.2754C54.1742 67.2754 54.1608 67.2763 54.1466 67.2763C54.0505 67.2763 53.957 67.2781 53.8671 67.2834C53.8422 67.2852 53.8164 67.2861 53.7915 67.2879C53.6864 67.2923 53.585 67.3039 53.488 67.3172C53.4666 67.3217 53.447 67.3261 53.4275 67.3288C53.3482 67.3448 53.2744 67.3608 53.2032 67.3831C53.1818 67.3884 53.1613 67.3955 53.1409 67.4027C53.0581 67.4303 52.9816 67.465 52.9104 67.5077C52.897 67.5148 52.8872 67.5246 52.8748 67.5335C52.8169 67.5718 52.7635 67.6163 52.7163 67.6661C52.7012 67.6821 52.687 67.6955 52.6736 67.7133C52.6202 67.7765 52.5731 67.8486 52.5348 67.9313C52.5312 67.9411 52.5277 67.9527 52.5241 67.9625C52.4912 68.0381 52.4663 68.1262 52.4467 68.2224C52.4413 68.2491 52.4351 68.2784 52.4307 68.3078C52.412 68.4208 52.4004 68.541 52.4004 68.6789L54.4349 72.2487H65.5706Z" fill="url(#paint5_linear_7905_71536)"/>
<path d="M73.8068 88.4109C73.7837 88.1724 73.7596 87.9365 73.7294 87.6945C73.708 87.5405 73.6804 87.3856 73.6555 87.2308C73.6217 87.0172 73.5852 86.8045 73.5443 86.5909C73.5104 86.4155 73.4722 86.2402 73.4339 86.0658C73.3894 85.87 73.3467 85.6751 73.2951 85.4757C73.2479 85.2861 73.1954 85.0966 73.1455 84.9052C73.0939 84.7272 73.0423 84.5474 72.9862 84.3676C72.9239 84.1612 72.8572 83.9538 72.7878 83.7491C72.7344 83.5924 72.6801 83.4367 72.6231 83.2801C72.5412 83.0531 72.4602 82.8253 72.3712 82.5992C72.3241 82.4817 72.2716 82.3651 72.2271 82.2494C72.1167 81.9851 72.009 81.7235 71.8906 81.4654C71.8782 81.436 71.8639 81.4066 71.8488 81.3746C71.2668 80.1001 70.5708 78.8657 69.784 77.7238C69.5126 77.3331 69.2295 76.9504 68.9394 76.5846C68.935 76.5784 68.9314 76.5739 68.9278 76.5712C68.7027 76.2882 68.4713 76.0132 68.2354 75.7462C68.2221 75.7338 68.2096 75.7213 68.1989 75.7071C67.9622 75.4445 67.7219 75.1908 67.4754 74.947C67.4638 74.9345 67.4531 74.9247 67.4389 74.9114C67.1888 74.6657 66.9342 74.4272 66.6744 74.203C66.6744 74.203 66.6744 74.2012 66.6735 74.2012H53.3324H53.3306C53.3226 74.2083 53.3137 74.2172 53.3057 74.2234C53.052 74.4468 52.8028 74.6747 52.5581 74.915C52.5492 74.9256 52.5403 74.9328 52.5314 74.9417C52.2813 75.1882 52.0374 75.4445 51.8007 75.7097C51.7909 75.7204 51.7829 75.7293 51.774 75.74C51.3583 76.2063 50.9632 76.7083 50.5849 77.2245C49.646 78.5052 48.8192 79.915 48.1481 81.3844C48.1357 81.4093 48.1232 81.4351 48.1116 81.4618C47.9915 81.7226 47.8847 81.9869 47.7752 82.2521C47.7271 82.366 47.6791 82.48 47.6337 82.5948C47.5447 82.8235 47.4601 83.0531 47.3774 83.2818C47.3222 83.4358 47.267 83.5907 47.2145 83.7446C47.1451 83.952 47.081 84.1594 47.016 84.3676C46.9617 84.5447 46.9092 84.7245 46.8585 84.9025C46.806 85.0948 46.7544 85.2843 46.7081 85.4748C46.6591 85.6742 46.6138 85.8682 46.571 86.0631C46.5319 86.2384 46.4927 86.4138 46.458 86.5891C46.418 86.8027 46.3824 87.0154 46.3485 87.2281C46.3236 87.3847 46.296 87.5396 46.2764 87.6927C46.2426 87.9339 46.2204 88.1706 46.1999 88.4091C46.1874 88.5337 46.1705 88.6583 46.1625 88.7811C46.1367 89.1389 46.1216 89.4949 46.1216 89.8411C46.1216 97.4862 52.3373 97.5494 60.0038 97.5494C67.6694 97.5494 73.8851 97.4862 73.8851 89.8411C73.8851 89.494 73.8691 89.1389 73.8442 88.7811C73.8326 88.661 73.8157 88.5355 73.8068 88.4109ZM64.2794 89.4148C64.1067 89.8233 63.8664 90.1838 63.5585 90.5015C63.2505 90.8193 62.8874 91.0845 62.4691 91.2963C62.0464 91.5054 61.5862 91.655 61.0843 91.744V92.86C61.0843 93.0879 60.9597 93.2027 60.7087 93.2027H59.2366C59.007 93.2027 58.8922 93.0879 58.8922 92.86V91.7208C58.4801 91.6309 58.0805 91.4983 57.6951 91.315C57.308 91.1334 56.9431 90.9189 56.5987 90.6688C56.3904 90.5166 56.2142 90.368 56.07 90.2247C55.9258 90.077 55.8119 89.9604 55.73 89.8732L55.706 89.8483C55.7007 89.8385 55.6953 89.8296 55.6891 89.8287C55.6846 89.826 55.6793 89.8242 55.6748 89.8171C55.6677 89.8073 55.6633 89.8011 55.6579 89.7975C55.6517 89.7949 55.6473 89.7922 55.6419 89.7877C55.5218 89.6551 55.4621 89.5501 55.4621 89.4727C55.4621 89.3855 55.5218 89.2849 55.6419 89.1772L56.9956 87.8903C57.1069 87.8128 57.1959 87.7746 57.2617 87.7746C57.3098 87.7746 57.3596 87.7906 57.4121 87.82C57.4637 87.8502 57.5252 87.8983 57.5981 87.9606C57.6871 88.0318 57.8011 88.1306 57.939 88.2534C58.0778 88.3771 58.2363 88.4955 58.4125 88.6156C58.6795 88.7936 58.942 88.9307 59.2037 89.0286C59.4645 89.1291 59.7377 89.1772 60.0261 89.1772C60.2922 89.1772 60.5147 89.1487 60.6944 89.0864C60.876 89.0286 61.0184 88.9485 61.1208 88.8506C61.2258 88.7491 61.3014 88.6361 61.3459 88.507C61.3913 88.3762 61.41 88.2383 61.41 88.0914C61.41 87.9303 61.3513 87.7852 61.2284 87.6589C61.1056 87.5325 60.9543 87.4186 60.7772 87.3189C60.5992 87.221 60.415 87.1373 60.221 87.067C60.0278 86.9967 59.8605 86.9371 59.7208 86.8917C59.0942 86.6727 58.5451 86.4387 58.0761 86.1859C57.607 85.9323 57.2154 85.6501 56.9013 85.3431C56.588 85.0334 56.3548 84.6925 56.1973 84.3214C56.0397 83.9493 55.9623 83.5328 55.9623 83.0771C55.9623 82.6766 56.0308 82.3073 56.1652 81.97C56.3005 81.6336 56.4945 81.331 56.7446 81.0657C56.9938 80.7987 57.3027 80.5745 57.6649 80.3884C58.0289 80.2051 58.4374 80.0689 58.8895 79.9799V78.895C58.8895 78.8016 58.918 78.7215 58.9759 78.6538C59.0337 78.5853 59.1191 78.5515 59.2348 78.5515H60.7069C60.7843 78.5515 60.868 78.5826 60.9543 78.6449C61.0407 78.7063 61.0834 78.7909 61.0834 78.8941V79.9399C61.3744 79.9933 61.6619 80.0663 61.9431 80.1615C62.2208 80.2585 62.4967 80.3822 62.7753 80.5326C62.9524 80.6368 63.1206 80.7427 63.2808 80.8566C63.4392 80.9678 63.5798 81.0764 63.7018 81.1806C63.8183 81.2847 63.9136 81.3826 63.9839 81.4769C64.0542 81.5695 64.0898 81.6514 64.0898 81.719C64.0898 81.7849 64.0729 81.8472 64.0373 81.905C64.0035 81.9611 63.9536 82.0278 63.8878 82.0999L62.688 83.3717C62.5999 83.4607 62.5109 83.5034 62.4228 83.5034C62.3498 83.5034 62.2822 83.4839 62.2217 83.442C62.1612 83.4002 62.0962 83.3495 62.0214 83.2854L61.9529 83.2249C61.8488 83.1359 61.7313 83.046 61.6031 82.9499C61.4741 82.8564 61.3379 82.7719 61.1928 82.6962C61.046 82.6215 60.892 82.56 60.7292 82.512C60.5681 82.4604 60.4043 82.4355 60.2379 82.4355C60.0643 82.4355 59.9023 82.4515 59.7502 82.4791C59.6015 82.5067 59.4671 82.5538 59.3532 82.6134C59.2375 82.6775 59.1476 82.7612 59.0782 82.8591C59.0106 82.9614 58.9759 83.086 58.9759 83.2302C58.9759 83.3762 59.0123 83.5035 59.0862 83.6094C59.1601 83.7162 59.2687 83.8132 59.4155 83.9057C59.5606 83.9983 59.7439 84.0846 59.9602 84.1629C60.1756 84.2439 60.4274 84.3303 60.7158 84.4237C61.2685 84.6062 61.7794 84.7975 62.2457 84.9986C62.713 85.198 63.117 85.4348 63.4561 85.708C63.7943 85.9803 64.0578 86.3087 64.2482 86.6861C64.4405 87.0679 64.5348 87.5263 64.5348 88.0674C64.5375 88.5587 64.4511 89.0072 64.2794 89.4148Z" fill="url(#paint6_linear_7905_71536)"/>
</g>
<defs>
<filter id="filter0_d_7905_71536" x="0.5" y="0" width="119" height="119" filterUnits="userSpaceOnUse" color-interpolation-filters="sRGB">
<feFlood flood-opacity="0" result="BackgroundImageFix"/>
<feColorMatrix in="SourceAlpha" type="matrix" values="0 0 0 0 0 0 0 0 0 0 0 0 0 0 0 0 0 0 127 0" result="hardAlpha"/>
<feOffset dy="2"/>
<feGaussianBlur stdDeviation="2"/>
<feComposite in2="hardAlpha" operator="out"/>
<feColorMatrix type="matrix" values="0 0 0 0 0 0 0 0 0 0 0 0 0 0 0 0 0 0 0.12 0"/>
<feBlend mode="normal" in2="BackgroundImageFix" result="effect1_dropShadow_7905_71536"/>
<feBlend mode="normal" in="SourceGraphic" in2="effect1_dropShadow_7905_71536" result="shape"/>
</filter>
<linearGradient id="paint0_linear_7905_71536" x1="36.4125" y1="-112.7" x2="56.3" y2="122.713" gradientUnits="userSpaceOnUse">
<stop stop-color="#FDECEC"/>
<stop offset="1" stop-color="#FFC1C1"/>
</linearGradient>
<linearGradient id="paint1_linear_7905_71536" x1="50.3797" y1="17.6331" x2="68.3481" y2="51.156" gradientUnits="userSpaceOnUse">
<stop stop-color="#FF9999"/>
<stop offset="1" stop-color="#EB4949"/>
</linearGradient>
<linearGradient id="paint2_linear_7905_71536" x1="69.4685" y1="52.4488" x2="84.042" y2="79.8941" gradientUnits="userSpaceOnUse">
<stop stop-color="#FF9999"/>
<stop offset="1" stop-color="#EB4949"/>
</linearGradient>
<linearGradient id="paint3_linear_7905_71536" x1="57.084" y1="56.5645" x2="60.1078" y2="64.6073" gradientUnits="userSpaceOnUse">
<stop stop-color="#FF9999"/>
<stop offset="1" stop-color="#EB4949"/>
</linearGradient>
<linearGradient id="paint4_linear_7905_71536" x1="34.6962" y1="52.4488" x2="49.2694" y2="79.8946" gradientUnits="userSpaceOnUse">
<stop stop-color="#FF9999"/>
<stop offset="1" stop-color="#EB4949"/>
</linearGradient>
<linearGradient id="paint5_linear_7905_71536" x1="55.0315" y1="67.3002" x2="55.8307" y2="73.0102" gradientUnits="userSpaceOnUse">
<stop stop-color="#FF9999"/>
<stop offset="1" stop-color="#EB4949"/>
</linearGradient>
<linearGradient id="paint6_linear_7905_71536" x1="50.926" y1="74.3177" x2="59.6335" y2="98.516" gradientUnits="userSpaceOnUse">
<stop stop-color="#FF9999"/>
<stop offset="1" stop-color="#EB4949"/>
</linearGradient>
</defs>
</svg>
