<svg width="22" height="22" viewBox="0 0 22 22" fill="none" xmlns="http://www.w3.org/2000/svg">
<path fill-rule="evenodd" clip-rule="evenodd" d="M21.2904 1.05001C21.5381 1.27016 21.5604 1.6494 21.3402 1.89707L18.1279 5.51096C17.4692 6.25199 16.302 6.22169 15.6827 5.44749L14.4233 3.87327C14.2163 3.61451 14.2582 3.23694 14.517 3.02993C14.7757 2.82292 15.1533 2.86488 15.3603 3.12363L16.6197 4.69785C16.7745 4.89141 17.0663 4.89898 17.231 4.71372L20.4434 1.09983C20.6635 0.852155 21.0427 0.829845 21.2904 1.05001Z" fill="white" fill-opacity="0.9"/>
<path d="M8.39156 21.5C5.09641 21.5 2.71054 21.5 1.16159 19.1819C-0.387362 16.8637 5.09643 15.125 8.39158 15.125C11.6867 15.125 17.1713 16.8637 15.622 19.1818C14.0726 21.4999 11.6867 21.5 8.39156 21.5Z" fill="white" fill-opacity="0.9"/>
<path d="M12.6776 8.75C12.6776 11.0972 10.7588 13 8.39191 13C6.02498 13 4.1062 11.0972 4.1062 8.75C4.1062 6.40279 6.02498 4.5 8.39191 4.5C10.7588 4.5 12.6776 6.40279 12.6776 8.75Z" fill="white" fill-opacity="0.9"/>
</svg>
